Coordinates
version=1
nRows=21
nColumns=12
inDegrees=yes

Units are S.I. units (second, meters, Newtons, ...)
Angles are in degrees

endheader
time	SC_y	SC_z	SC_x	AC_y	AC_z	AC_x	GH_y	GH_z	GH_yy	EL_x	PS_y
       0.0               -24.2        -0.8497          14.72          42.86          4.749         -11.04          61.76          39.78         -168.9          94.27          117.1
   0.01046               -24.2        -0.8439          14.72          42.86          4.747         -11.04          61.76          39.77         -168.8          94.27          117.1
   0.02091               -24.2        -0.8377          14.73          42.86          4.744         -11.03          61.77          39.77         -168.8          94.27          117.1
   0.03137              -24.21        -0.8311          14.73          42.87          4.742         -11.03          61.77          39.76         -168.8          94.28          117.1
   0.04183              -24.21        -0.8242          14.73          42.87           4.74         -11.03          61.77          39.75         -168.8          94.28          117.1
   0.05229              -24.21        -0.8167          14.73          42.87          4.737         -11.02          61.77          39.74         -168.8          94.28          117.1
   0.06274              -24.21        -0.8087          14.74          42.87          4.734         -11.02          61.77          39.73         -168.7          94.28          117.1
    0.0732              -24.21        -0.8002          14.74          42.88          4.731         -11.01          61.77          39.72         -168.7          94.29          117.1
   0.08366              -24.22        -0.7911          14.74          42.88          4.728          -11.0          61.77          39.71         -168.7          94.29          117.1
   0.09412              -24.22        -0.7813          14.75          42.88          4.724          -11.0          61.78           39.7         -168.7          94.29          117.1
    0.1046              -24.22        -0.7708          14.75          42.89           4.72         -10.99          61.78          39.69         -168.6          94.29          117.1
     0.115              -24.23        -0.7595          14.75          42.89          4.716         -10.98          61.78          39.68         -168.6           94.3          117.1
    0.1255              -24.23        -0.7473          14.76           42.9          4.712         -10.97          61.78          39.66         -168.6           94.3          117.1
    0.1359              -24.23        -0.7342          14.76           42.9          4.707         -10.97          61.79          39.65         -168.5           94.3          117.1
    0.1464              -24.24        -0.7199          14.77           42.9          4.702         -10.96          61.79          39.63         -168.5          94.31          117.1
    0.1569              -24.24        -0.7045          14.77          42.91          4.697         -10.95          61.79          39.62         -168.4          94.31          117.1
    0.1673              -24.25        -0.6877          14.78          42.92          4.691         -10.94          61.79           39.6         -168.4          94.32          117.1
    0.1778              -24.25        -0.6694          14.78          42.92          4.684         -10.92           61.8          39.58         -168.3          94.32          117.1
    0.1882              -24.26        -0.6494          14.79          42.93          4.677         -10.91           61.8          39.55         -168.3          94.33          117.1
    0.1987              -24.27        -0.6275           14.8          42.94          4.669          -10.9          61.81          39.53         -168.2          94.33          117.0
    0.2091              -24.28        -0.6035          14.81          42.94          4.661         -10.88          61.81           39.5         -168.1          94.34          117.0
